/* XPM */
static char *codelite[] = {
/* columns rows colors chars-per-pixel */
"32 32 252 2",
"   c #006C00",
".  c #007300",
"X  c #007C00",
"o  c #007313",
"O  c #387500",
"+  c #417F0B",
"@  c #66563A",
"#  c #004D5D",
"$  c #1A4C7B",
"%  c #1B6B73",
"&  c #6F6F47",
"*  c #757E58",
"=  c #9C6600",
"-  c #9C6A00",
";  c #937000",
":  c #A76200",
">  c #AA6400",
",  c #A16D00",
"<  c #AC6B00",
"1  c #B06E00",
"2  c #A57200",
"3  c #AA7500",
"4  c #AD7A00",
"5  c #B47100",
"6  c #B27E00",
"7  c #008300",
"8  c #0F8300",
"9  c #008C00",
"0  c #098F06",
"q  c #0F8C0A",
"w  c #178900",
"e  c #009500",
"r  c #019A01",
"t  c #099D04",
"y  c #12920B",
"u  c #1E9B14",
"i  c #228903",
"p  c #2F8907",
"a  c #3B850B",
"s  c #0EA107",
"d  c #11A007",
"f  c #16A30A",
"g  c #1CA60D",
"h  c #1BA011",
"j  c #1FAF13",
"k  c #22A912",
"l  c #2BAE15",
"z  c #2CAA1E",
"x  c #38A619",
"c  c #2EB41D",
"v  c #2FBA1B",
"b  c #34B219",
"n  c #3CB61D",
"m  c #33B81B",
"M  c #35BC22",
"N  c #3CB728",
"B  c #4B820D",
"V  c #609407",
"C  c #44BA21",
"Z  c #4ABD24",
"A  c #4FBD2A",
"S  c #3BC327",
"D  c #42C426",
"F  c #4FC027",
"G  c #47C52F",
"H  c #42C92D",
"J  c #54C32A",
"K  c #59C52C",
"L  c #53C92D",
"P  c #4CC633",
"I  c #4BCD32",
"U  c #51CE32",
"Y  c #56D436",
"T  c #53D239",
"R  c #5AD53C",
"E  c #5EDB3F",
"W  c #63CB32",
"Q  c #6BD037",
"!  c #6DD33A",
"~  c #63DA3E",
"^  c #74DA3A",
"/  c #61E333",
"(  c #63E03D",
")  c #2E836F",
"_  c #50A778",
"`  c #61D340",
"'  c #61DA41",
"]  c #6BDE43",
"[  c #76DC42",
"{  c #67C356",
"}  c #6FE34A",
"|  c #76E246",
" . c #7DE349",
".. c #78EB4F",
"X. c #7EEE54",
"o. c #B48000",
"O. c #B88400",
"+. c #BE8A01",
"@. c #C28F00",
"#. c #C49200",
"$. c #CC9500",
"%. c #CD9900",
"&. c #D19E00",
"*. c #C19414",
"=. c #D5A300",
"-. c #D8A400",
";. c #DEAA00",
":. c #D3AF18",
">. c #E2AE00",
",. c #E6B401",
"<. c #E9B500",
"1. c #ECBB00",
"2. c #F2BE00",
"3. c #D2AC23",
"4. c #F4C100",
"5. c #FAC600",
"6. c #FECB00",
"7. c #FFD100",
"8. c #FFDB00",
"9. c #FFE202",
"0. c #FFEC00",
"q. c #FFFB00",
"w. c #FFFF0A",
"e. c #FFF61F",
"r. c #FFFF1B",
"t. c #E1C035",
"y. c #FFEC2C",
"u. c #82E84F",
"i. c #86F94D",
"p. c #84E950",
"a. c #8BEE54",
"s. c #8EFF50",
"d. c #86F259",
"f. c #8BF45B",
"g. c #98FF55",
"h. c #9FFF5E",
"j. c #8FF960",
"k. c #96FD64",
"l. c #9AFE65",
"z. c #A3FF6C",
"x. c #EDD145",
"c. c #FFEF4A",
"v. c #FFFF42",
"b. c #F7E056",
"n. c #FFFB5D",
"m. c #FEED64",
"M. c #FFFF6C",
"N. c #ECE279",
"B. c #FFF770",
"V. c #FFFF7D",
"C. c #00369C",
"Z. c #00389E",
"A. c #0027A6",
"S. c #002DA2",
"D. c #002DA9",
"F. c #0030A4",
"G. c #003CA3",
"H. c #0034AB",
"J. c #003AAB",
"K. c #0029B0",
"L. c #0039BE",
"P. c #174E96",
"I. c #0040A6",
"U. c #0044AB",
"Y. c #0049AF",
"T. c #0849AF",
"R. c #0A53AE",
"E. c #0046B0",
"W. c #004CB3",
"Q. c #0044BC",
"!. c #004CB9",
"~. c #0050B7",
"^. c #0B53B6",
"/. c #0153BA",
"(. c #0058BE",
"). c #085ABC",
"_. c #004CC6",
"`. c #0042CC",
"'. c #0055C3",
"]. c #005AC2",
"[. c #005FD3",
"{. c #0056DA",
"}. c #0064CB",
"|. c #0068CF",
" X c #1965C3",
".X c #006DD3",
"XX c #0064D9",
"oX c #006ADD",
"OX c #0070D7",
"+X c #0C73D4",
"@X c #0074DB",
"#X c #0078DF",
"$X c #1D76D3",
"%X c #1379D9",
"&X c #2B6FC7",
"*X c #2674CE",
"=X c #2C79CE",
"-X c #0058E3",
";X c #006AE1",
":X c #007CE2",
">X c #2B80D7",
",X c #3080D6",
"<X c #3785D8",
"1X c #3B89DB",
"2X c #0081E7",
"3X c #0084EA",
"4X c #0088EE",
"5X c #0087F0",
"6X c #008DF4",
"7X c #0090F6",
"8X c #0095FB",
"9X c #029BFF",
"0X c #0D9FFE",
"qX c #15A0FE",
"wX c #21A5FF",
"eX c #2CA8FF",
"rX c #30A9FF",
"tX c #3EB4FF",
"yX c #4B93DF",
"uX c #4493E2",
"iX c #4F96E2",
"pX c #4C9DE7",
"aX c #5A9FE7",
"sX c #519EEA",
"dX c #52A0E9",
"fX c #58A4EA",
"gX c #44AFFF",
"hX c #5EACF1",
"jX c #4FB2FF",
"kX c #5BB8FF",
"lX c #60A7ED",
"zX c #65AAED",
"xX c #67ADF0",
"cX c #6BB6F9",
"vX c #66BBFF",
"bX c #77B4F3",
"nX c #72BFFF",
"mX c #7CC3FF",
"MX c #FFFF82",
"NX c #FFFF93",
"BX c #84BEF7",
"VX c #86C7FF",
"CX c #8DC3F9",
"ZX c #84CCFF",
"AX c #92C6FB",
"SX c #96CCFF",
"DX c #9CCDFE",
"FX c #95D2FF",
"GX c #9CD1FF",
"HX c #9FD9FF",
"JX c #A8D6FF",
"KX c None",
/* pixels */
"KXKXKXKXKXKXKXKXKXKXKXKXKXKXKXKXKXKXKXKXKXKXKXKXKXKXKXKXKXKXKXKX",
"KXKXKXKXKXKXKXKXKXKXKXKXW.!.).).~.Y.J.G.G.KXKXKXKXKXKXKXKXKXKXKX",
"KXKXKXKXKXKXKXKX$X1XyXaXzXxXlXfXdXpXuX1X,X=X&XT.KXKXKXKXKXKXKXKX",
"KXKXKXKXKXKXKX%XHXGXGXDXDXDXAXCXBXCXSXbXiX*X/.~.J.KXKXKXKXKXKXKX",
"KXKXKXKXKXKXKX+XtXgXjXkXvXnXmXVXJX>X]././.~.~.W.J.KXKXKXKXKXKXKX",
"KXKXKXKXKXKXKX.X9X9X9X0XqXwXeXrXFX].].(./.~.W.Y.H.KXKXKXKXKXKXKX",
"KXKXKXKXKXKXKX.X8X7X8X8X8X8X8X8XZX/.(./.~.W.E.U.H.KXKXKXKXKXKXKX",
"KXKXKXKXKXKXKXoX7X6X6X6X6X6X7X6XmX!./.~.W.W.Y.I.J.KXKXKXKXKXKXKX",
"KXKXKXKXKXKXKXXX4X3X3X3X4X4X4X5XcXW.~.W.W.Y.U.G.J.KXKXKXKXKXKXKX",
"KXKXKXKXKXKXKXXX2X:X:X2X2X2X2X2XhXE.W.W.Y.U.U.G.KXKXKXKXKXKXKXKX",
"KXKXKXKXKXKXKX[.:X#X#X:X:X:X:X:XsXE.W.Y.U.I.G.Z.KXKXKXKXKXKXKXKX",
"KXKXKXKXKXKXKX{.@XOXOX@X@X@X@X#XuXU.Y.U.I.G.G.C.KXKXKXKXKXKXKXKX",
"KXKXKXKXKXKXKX& ;X.X.X.X.X.X.XOX<XU.U.U.I.G.G.F.KXKXKXKXKXKXKXKX",
"KXKXKXKX$.$.;.<.-X}.}.|.|.|.|..X*XU.U.I.G.G.D.# o KXKXKXKXKXKXKX",
"KXKX=.1.6.6.6.6.R.`._.'.].].].}. XI.I.G.F.A.% D v h 0 7 7 KXKXKX",
"KX#.w.e.y.8.7.6.7.:.* P.L.Q.!.!.^.J.H.S.) ( / Y I I H S c y KXKX",
"KX#.q.q.q.v.n.c.9.8.8.y.+.@ $ D.K.G._ s.i...} ] ' R T E G 9 . KX",
"KX+.8.8.9.0.q.r.M.NXN.O.o.5 V x { g.h.l.k.j.d.X...X.d.z X 7 . KX",
"KXO.6.5.6.7.8.9.0.MX+.O.6 5 B A ^ [  .p.f.k.l.l.z.` 7 X 7 X   KX",
"KXo.2.2.4.4.5.5.6.V.O.o.4 5 + L K W W ! [  .u.k.P X 7 7 X X   KX",
"KX4 <.,.<.1.1.2.2.B.o.o.4 1 a D Z F J K W W Q a.N X 7 X X .   KX",
"KX4 ;.;.;.>.,.<.<.m.6 6 3 < a m n n C Z F J K  .z X X X X .   KX",
"KX4 &.=.=.-.;.;.>.b.4 4 2 < p j l l b n n C C | u X X X . . KXKX",
"KX4 #.%.%.&.&.=.-.x.4 4 2 > i s f g k l l b b ] q X X . .   KXKX",
"KX4 6 O.+.#.$.%.%.t.4 3 , > w r r t s f g k k ~ X X . .     KXKX",
"KXKX3 3 4 o.O.+.@.3.3 2 - > 8 9 9 e e r t s d U . . . .     KXKX",
"KXKXKXKX, , 2 4 6 *.3 2 - : O X 7 7 9 9 e e r M . . .     X KXKX",
"KXKXKXKXKXKX; = , 2 4 - - KXKX7 X X X 7 7 9 9 k   .     KXKXKXKX",
"KXKXKXKXKXKXKXKX2 = , < KXKXKXKXKX7 X . X X 7 y .     KXKXKXKXKX",
"KXKXKXKXKXKXKXKXKXKXKXKXKXKXKXKXKXKXKX7 . . . .   . KXKXKXKXKXKX",
"KXKXKXKXKXKXKXKXKXKXKXKXKXKXKXKXKXKXKXKXKX      KXKXKXKXKXKXKXKX",
"KXKXKXKXKXKXKXKXKXKXKXKXKXKXKXKXKXKXKXKXKXKXKXKXKXKXKXKXKXKXKXKX"
};
